# xmcd
# 
# Track frame offsets:
#     183
#     18303
#     27633
#     40965
#     61333
#     71295
#     84570
#     95295
#     106395
#     122798
#     138670
#     157970
#     180378
#     200153
#     216820
# 
# Disc length: 3228
# 
# Revision: 2
# Processed by: cddbd v1.5.2PL0 Copyright (c) Steve Scherf et al.
# Submitted via: BonkEnc v1.0.15
# 
DISCID=d00c9a0f
DTITLE=MEMPHIS SLIM - THE BLUES IS EVERYWHERE
DYEAR=1969
DGENRE=Blues
TTITLE0=WE'VE BEEN TOGETHER TOO LONG
TTITLE1=SASSY MAE
TTITLE2=THE DRIVING WHEEL
TTITLE3=LIFE IS LIKE THAT
TTITLE4=ALL BY MYSELF
TTITLE5=NEXT TIME YOU SEE ME
TTITLE6=MISERY
TTITLE7=KANSAS CITY
TTITLE8=THE COMEBACK
TTITLE9=HCF BOOGIE
TTITLE10=THE BLUES IS EVERYWHERE
TTITLE11=BOOGI JAM
TTITLE12=THE SKIES ARE CRYING
TTITLE13=NINE BELOW ZERO
TTITLE14=FATTENING FROG FOR SNAKES
EXTD=YEAR: 1969 ID3G: 0
EXTT0=
EXTT1=
EXTT2=
EXTT3=
EXTT4=
EXTT5=
EXTT6=
EXTT7=
EXTT8=
EXTT9=
EXTT10=
EXTT11=
EXTT12=
EXTT13=
EXTT14=
PLAYORDER=
